<svg xmlns="http://www.w3.org/2000/svg" version="1.1" xmlns:xlink="http://www.w3.org/1999/xlink" xmlns:svgjs="http://svgjs.dev/svgjs" width="1500" height="299" viewBox="0 0 1500 299"><g transform="matrix(1,0,0,1,-0.9090909090909918,-0.530330830247749)"><svg viewBox="0 0 396 79" data-background-color="#ffffff" preserveAspectRatio="xMidYMid meet" height="299" width="1500" xmlns="http://www.w3.org/2000/svg" xmlns:xlink="http://www.w3.org/1999/xlink"><g id="tight-bounds" transform="matrix(1,0,0,1,0.2400000000000091,0.14012085481462577)"><svg viewBox="0 0 395.52 78.71975829037073" height="78.71975829037073" width="395.52"><g><svg viewBox="0 0 397.4975999999999 79.11335708182257" height="78.71975829037073" width="395.52"><g><svg viewBox="0 0 397.4975999999999 79.11335708182257" height="79.11335708182257" width="397.4975999999999"><g id="textblocktransform"><svg viewBox="0 0 397.4975999999999 79.11335708182257" height="79.11335708182257" width="397.4975999999999" id="textblock"><g><rect width="397.4975999999999" height="3.9520922281192323" x="0" y="48.47959141008385" fill="#000000" opacity="1" stroke-width="0" stroke="transparent" fill-opacity="1" class="rect-yte-0" data-fill-palette-color="primary" rx="1%" id="yte-0" data-palette-color="#000000"></rect></g><g transform="matrix(1,0,0,1,0.9887999999999693,0)"><svg viewBox="0 0 395.52 43.8239853821947" height="43.8239853821947" width="395.52"><g transform="matrix(1,0,0,1,0,0)"><svg width="395.52" viewBox="3.08 -40.41 480.97 53.3" height="43.8239853821947" data-palette-color="#000000"><path d="M3.08-5.08L7.2-11.35Q9.28-10.18 11.41-9.24 13.55-8.3 15.84-7.65 18.14-7.01 20.67-6.67 23.19-6.32 26.05-6.32L26.05-6.32Q29.49-6.32 31.91-6.77 34.33-7.23 35.85-8.02 37.38-8.81 38.07-9.91 38.77-11.01 38.77-12.3L38.77-12.3Q38.77-14.38 37.04-15.59 35.3-16.8 31.69-16.8L31.69-16.8Q30.1-16.8 28.34-16.59 26.59-16.38 24.79-16.14 23-15.89 21.25-15.69 19.51-15.48 17.97-15.48L17.97-15.48Q15.41-15.48 13.05-16.14 10.69-16.8 8.87-18.12 7.06-19.43 5.98-21.41 4.91-23.39 4.91-26.03L4.91-26.03Q4.91-27.59 5.33-29.13 5.76-30.66 6.7-32.07 7.64-33.47 9.13-34.68 10.62-35.89 12.73-36.77 14.84-37.65 17.61-38.15 20.39-38.65 23.93-38.65L23.93-38.65Q26.49-38.65 29.08-38.37 31.67-38.09 34.12-37.57 36.57-37.06 38.84-36.34 41.11-35.62 43.07-34.74L43.07-34.74 39.67-28.49Q38.06-29.2 36.21-29.8 34.35-30.4 32.32-30.83 30.3-31.27 28.14-31.53 25.98-31.79 23.73-31.79L23.73-31.79Q20.53-31.79 18.47-31.32 16.41-30.86 15.19-30.14 13.96-29.42 13.49-28.53 13.01-27.64 13.01-26.76L13.01-26.76Q13.01-25.05 14.55-23.96 16.09-22.88 19.24-22.88L19.24-22.88Q20.51-22.88 22.16-23.06 23.8-23.24 25.62-23.46 27.44-23.68 29.33-23.86 31.23-24.05 33.01-24.05L33.01-24.05Q36.38-24.05 38.98-23.29 41.58-22.53 43.33-21.13 45.09-19.73 46-17.74 46.9-15.75 46.9-13.28L46.9-13.28Q46.9-9.99 45.37-7.41 43.85-4.83 41.03-3.06 38.21-1.29 34.23-0.38 30.25 0.54 25.37 0.54L25.37 0.54Q22.14 0.54 19.07 0.13 15.99-0.27 13.17-1.01 10.35-1.76 7.8-2.8 5.25-3.83 3.08-5.08L3.08-5.08ZM54.51-13.75L54.51-28.83 61.72-28.83 61.72-14.77Q61.72-12.77 62.16-11.12 62.6-9.47 63.66-8.3 64.72-7.13 66.49-6.48 68.26-5.83 70.9-5.83L70.9-5.83Q72.14-5.83 73.42-6.1 74.7-6.37 75.88-6.85 77.05-7.32 78.06-7.98 79.07-8.64 79.81-9.42L79.81-9.42 79.81-28.83 87.03-28.83 87.03 0 79.81 0 79.81-2.47Q77.15-0.88 74.46-0.2 71.77 0.49 69.36 0.49L69.36 0.49Q65.4 0.49 62.58-0.46 59.76-1.42 57.97-3.23 56.17-5.05 55.34-7.7 54.51-10.35 54.51-13.75L54.51-13.75ZM96.41 0L96.41-28.81 103.63-28.81 103.63-26.37Q106.34-28.03 108.92-28.67 111.49-29.32 113.96-29.32L113.96-29.32Q117.4-29.32 120.28-28.22 123.16-27.12 125.21-24.9L125.21-24.9Q126.8-26.12 128.34-26.97 129.88-27.81 131.42-28.33 132.95-28.86 134.54-29.09 136.13-29.32 137.81-29.32L137.81-29.32Q141.35-29.32 144.23-28.36 147.11-27.39 149.15-25.49 151.19-23.58 152.3-20.74 153.41-17.9 153.41-14.16L153.41-14.16 153.41 0 146.21 0 146.21-12.99Q146.21-15.36 145.54-17.22 144.87-19.09 143.66-20.37 142.45-21.66 140.78-22.33 139.11-23 137.1-23L137.1-23Q136.01-23 134.86-22.79 133.71-22.58 132.62-22.14 131.54-21.7 130.59-21.03 129.63-20.36 128.93-19.46L128.93-19.46 128.93 0 121.72 0 121.72-12.99Q121.72-15.36 121.05-17.22 120.38-19.09 119.17-20.37 117.96-21.66 116.27-22.33 114.57-23 112.54-23L112.54-23Q111.3-23 110.04-22.74 108.78-22.49 107.62-22.02 106.46-21.56 105.45-20.9 104.44-20.24 103.63-19.41L103.63-19.41 103.63 0 96.41 0ZM162.69 0L162.69-28.81 169.91-28.81 169.91-26.37Q172.62-28.03 175.2-28.67 177.78-29.32 180.24-29.32L180.24-29.32Q183.68-29.32 186.56-28.22 189.45-27.12 191.5-24.9L191.5-24.9Q193.08-26.12 194.62-26.97 196.16-27.81 197.7-28.33 199.24-28.86 200.82-29.09 202.41-29.32 204.09-29.32L204.09-29.32Q207.63-29.32 210.51-28.36 213.4-27.39 215.43-25.49 217.47-23.58 218.58-20.74 219.69-17.9 219.69-14.16L219.69-14.16 219.69 0 212.49 0 212.49-12.99Q212.49-15.36 211.82-17.22 211.15-19.09 209.94-20.37 208.73-21.66 207.06-22.33 205.39-23 203.39-23L203.39-23Q202.29-23 201.14-22.79 199.99-22.58 198.91-22.14 197.82-21.7 196.87-21.03 195.92-20.36 195.21-19.46L195.21-19.46 195.21 0 188.01 0 188.01-12.99Q188.01-15.36 187.33-17.22 186.66-19.09 185.45-20.37 184.25-21.66 182.55-22.33 180.85-23 178.83-23L178.83-23Q177.58-23 176.32-22.74 175.07-22.49 173.91-22.02 172.75-21.56 171.73-20.9 170.72-20.24 169.91-19.41L169.91-19.41 169.91 0 162.69 0ZM232.58-32.74L232.58-32.74Q231.51-32.74 230.64-33.04 229.78-33.35 229.16-33.87 228.55-34.4 228.22-35.1 227.9-35.79 227.9-36.57L227.9-36.57Q227.9-37.38 228.22-38.07 228.55-38.77 229.16-39.28 229.78-39.79 230.64-40.1 231.51-40.41 232.58-40.41L232.58-40.41Q233.68-40.41 234.55-40.1 235.41-39.79 236.03-39.28 236.64-38.77 236.97-38.07 237.29-37.38 237.29-36.57L237.29-36.57Q237.29-35.79 236.97-35.1 236.64-34.4 236.03-33.87 235.41-33.35 234.55-33.04 233.68-32.74 232.58-32.74ZM228.97 0L228.97-28.81 236.2-28.81 236.2 0 228.97 0ZM249.79 0L249.79-23.39 242.83-23.39 242.83-28.81 249.79-28.81 249.79-37.77 257.02-37.77 257.02-28.81 263.98-28.81 263.98-23.39 257.02-23.39 257.02 0 249.79 0ZM285.55-5.08L289.68-11.35Q291.75-10.18 293.89-9.24 296.03-8.3 298.32-7.65 300.62-7.01 303.14-6.67 305.67-6.32 308.53-6.32L308.53-6.32Q311.97-6.32 314.39-6.77 316.8-7.23 318.33-8.02 319.86-8.81 320.55-9.91 321.25-11.01 321.25-12.3L321.25-12.3Q321.25-14.38 319.51-15.59 317.78-16.8 314.17-16.8L314.17-16.8Q312.58-16.8 310.82-16.59 309.06-16.38 307.27-16.14 305.48-15.89 303.73-15.69 301.98-15.48 300.45-15.48L300.45-15.48Q297.88-15.48 295.53-16.14 293.17-16.8 291.35-18.12 289.53-19.43 288.46-21.41 287.38-23.39 287.38-26.03L287.38-26.03Q287.38-27.59 287.81-29.13 288.24-30.66 289.18-32.07 290.12-33.47 291.61-34.68 293.1-35.89 295.21-36.77 297.32-37.65 300.09-38.15 302.86-38.65 306.4-38.65L306.4-38.65Q308.97-38.65 311.55-38.37 314.14-38.09 316.6-37.57 319.05-37.06 321.32-36.34 323.59-35.62 325.54-34.74L325.54-34.74 322.15-28.49Q320.54-29.2 318.68-29.8 316.83-30.4 314.8-30.83 312.78-31.27 310.61-31.53 308.45-31.79 306.21-31.79L306.21-31.79Q303.01-31.79 300.95-31.32 298.88-30.86 297.66-30.14 296.44-29.42 295.97-28.53 295.49-27.64 295.49-26.76L295.49-26.76Q295.49-25.05 297.03-23.96 298.57-22.88 301.72-22.88L301.72-22.88Q302.99-22.88 304.63-23.06 306.28-23.24 308.1-23.46 309.92-23.68 311.81-23.86 313.7-24.05 315.49-24.05L315.49-24.05Q318.85-24.05 321.45-23.29 324.05-22.53 325.81-21.13 327.57-19.73 328.47-17.74 329.38-15.75 329.38-13.28L329.38-13.28Q329.38-9.99 327.85-7.41 326.33-4.83 323.51-3.06 320.69-1.29 316.71-0.38 312.73 0.54 307.84 0.54L307.84 0.54Q304.62 0.54 301.55 0.13 298.47-0.27 295.65-1.01 292.83-1.76 290.28-2.8 287.73-3.83 285.55-5.08L285.55-5.08ZM335.62-9.08L335.62-9.08Q335.62-11.16 336.53-12.87 337.43-14.58 339.24-15.81 341.04-17.04 343.74-17.71 346.44-18.38 350.03-18.38L350.03-18.38Q352.69-18.38 355.63-17.99 358.57-17.6 361.7-16.8L361.7-16.8Q361.58-18.16 360.87-19.32 360.16-20.48 358.9-21.33 357.65-22.17 355.88-22.63 354.11-23.1 351.86-23.1L351.86-23.1Q350.64-23.1 349.17-22.95 347.71-22.8 346.15-22.51 344.58-22.22 343.06-21.78 341.53-21.34 340.21-20.73L340.21-20.73 338.02-26.66Q339.65-27.25 341.52-27.73 343.39-28.22 345.34-28.58 347.29-28.93 349.25-29.13 351.2-29.32 353.03-29.32L353.03-29.32Q361.11-29.32 365.04-25.2 368.97-21.07 368.97-12.55L368.97-12.55 368.97 0 361.75 0 361.75-2.71Q360.62-2.05 359.29-1.46 357.96-0.88 356.4-0.44 354.84 0 353.04 0.26 351.25 0.51 349.25 0.51L349.25 0.51Q345.88 0.51 343.33-0.22 340.78-0.95 339.07-2.25 337.36-3.54 336.49-5.29 335.62-7.03 335.62-9.08ZM343.24-9.33L343.24-9.33Q343.24-8.62 343.61-7.97 343.97-7.32 344.78-6.82 345.59-6.32 346.84-6.02 348.1-5.71 349.88-5.71L349.88-5.71Q351.79-5.71 353.57-6.05 355.35-6.4 356.89-6.96 358.43-7.52 359.67-8.25 360.92-8.98 361.75-9.77L361.75-9.77 361.75-11.04Q360.09-11.5 358.46-11.82 356.84-12.13 355.36-12.32 353.89-12.5 352.58-12.57 351.27-12.65 350.3-12.65L350.3-12.65Q348.27-12.65 346.93-12.38 345.59-12.11 344.76-11.66 343.93-11.21 343.58-10.6 343.24-9.99 343.24-9.33ZM388.19 0L374.54-28.83 382.91-28.83 390.41-11.5 392.36-6.64 394.31-11.5 401.81-28.83 410.18-28.83 396.54 0 388.19 0ZM424.9 0L411.25-28.83 419.63-28.83 427.12-11.5 429.08-6.64 431.03-11.5 438.52-28.83 446.9-28.83 433.25 0 424.9 0ZM452.71 9.72L455.39 3.61Q456.52 4.35 457.83 4.91 459.15 5.47 460.58 5.83 462.01 6.2 463.5 6.38 464.99 6.57 466.45 6.57L466.45 6.57Q471.43 6.57 474.13 4.43 476.83 2.29 476.83-1.98L476.83-1.98 476.83-2.95Q475.88-2.29 474.69-1.75 473.51-1.2 472.15-0.81 470.8-0.42 469.3-0.21 467.79 0 466.26 0L466.26 0Q462.96 0 460.36-0.96 457.76-1.93 455.97-3.8 454.17-5.66 453.22-8.4 452.27-11.13 452.27-14.65L452.27-14.65 452.27-28.81 459.47-28.81 459.47-16.65Q459.47-11.43 461.46-8.95 463.45-6.47 467.75-6.47L467.75-6.47Q470.77-6.47 473.1-7.53 475.44-8.59 476.83-10.25L476.83-10.25 476.83-28.81 484.05-28.81 484.05-3.3Q484.05 0.83 482.88 3.87 481.71 6.91 479.48 8.91 477.24 10.91 474 11.9 470.75 12.89 466.62 12.89L466.62 12.89Q462.59 12.89 459.1 12.04 455.61 11.18 452.71 9.72L452.71 9.72Z" opacity="1" transform="matrix(1,0,0,1,0,0)" fill="#000000" class="wordmark-text-0" data-fill-palette-color="primary" id="text-0"></path></svg></g></svg></g><g transform="matrix(1,0,0,1,0.9887999999999693,57.08728966609223)"><svg viewBox="0 0 395.52 22.026067415730335" height="22.026067415730335" width="395.52"><g transform="matrix(1,0,0,1,0,0)"><svg width="395.52" viewBox="6.71 -36.89 895.13 49.85" height="22.026067415730335" data-palette-color="#000000"><path d="M24.07-34.94L24.07-34.94Q28.81-34.94 33.5-33.08L33.5-33.08 32.23-29.64Q27.49-31.27 23.95-31.27L23.95-31.27Q21.02-31.27 18.52-30.11 16.02-28.96 14.37-27.01 12.72-25.07 11.79-22.57 10.86-20.07 10.86-17.33L10.86-17.33Q10.86-14.5 11.85-11.95 12.84-9.4 14.62-7.48 16.41-5.57 19.06-4.44 21.7-3.32 24.85-3.32L24.85-3.32Q28.61-3.32 32.69-4.79L32.69-4.79 33.96-1.71Q28.86 0.49 23.8 0.49L23.8 0.49Q20.68 0.49 17.94-0.42 15.21-1.32 13.17-2.94 11.13-4.57 9.67-6.79 8.2-9.01 7.46-11.68 6.71-14.36 6.71-17.31L6.71-17.31Q6.71-22.31 8.8-26.29 10.89-30.27 14.87-32.6 18.85-34.94 24.07-34.94ZM50.51-21L50.51-21Q47.65-21 44.06-19.12L44.06-19.12 44.06 0 40.06 0 40.06-36.89 44.06-36.89 44.06-22.29Q48.34-24.56 52.07-24.56L52.07-24.56Q53.68-24.56 54.97-24.15 56.25-23.73 57.08-23.11 57.91-22.49 58.51-21.5 59.1-20.51 59.41-19.64 59.71-18.77 59.87-17.58 60.03-16.38 60.07-15.63 60.1-14.87 60.1-13.84L60.1-13.84 60.1 0 56 0 56-14.58Q56-21 50.51-21ZM76.87-24.58L76.87-24.58Q79.56-24.58 81.43-23.96 83.3-23.34 84.31-22.14 85.32-20.95 85.76-19.48 86.2-18.02 86.2-16.11L86.2-16.11 86.2 0 83.37 0 82.44-2.2Q79.49 0.49 75.65 0.49L75.65 0.49Q72.24 0.49 69.87-1.57 67.5-3.64 67.5-6.4L67.5-6.4Q67.5-7.86 68.04-9.03 68.57-10.21 69.59-10.99 70.6-11.77 71.89-12.32 73.19-12.87 74.91-13.16 76.63-13.45 78.36-13.57 80.1-13.7 82.17-13.7L82.17-13.7 82.17-15.6Q82.17-16.43 82.11-17.04 82.05-17.65 81.71-18.51 81.37-19.36 80.78-19.91 80.2-20.46 79.02-20.86 77.85-21.26 76.24-21.26L76.24-21.26Q73.75-21.26 69.79-20.17L69.79-20.17 69.04-23.1Q73.04-24.58 76.87-24.58ZM82.17-5.13L82.17-10.67 80.68-10.67Q79.29-10.67 78.27-10.62 77.24-10.57 75.86-10.34 74.48-10.11 73.6-9.69 72.72-9.28 72.1-8.48 71.48-7.69 71.48-6.59L71.48-6.59Q71.48-5.05 73.03-3.86 74.58-2.66 76.73-2.66L76.73-2.66Q79.88-2.66 82.17-5.13L82.17-5.13ZM97.8-24.12L98.55-22.31Q101.6-24.58 105.29-24.58L105.29-24.58Q107.83-24.58 109.9-23.63L109.9-23.63 108.68-20.43Q106.78-21.17 104.73-21.17L104.73-21.17Q101.68-21.17 98.99-19.48L98.99-19.48 98.99 0 94.99 0 94.99-24.12 97.8-24.12ZM126.8-3.15L127.36-0.42Q123.82 0.49 121.84 0.49 119.86 0.49 118.5-0.15 117.13-0.78 116.42-1.95 115.71-3.13 115.41-4.48 115.1-5.83 115.1-7.59L115.1-7.59 115.1-20.97 111.86-20.97 111.86-24.12 115.1-24.12 115.1-31.03 119.11-31.03 119.11-24.12 126.45-24.12 126.45-20.97 119.11-20.97 119.11-7.64Q119.11-2.64 123.06-2.64L123.06-2.64Q123.77-2.64 126.8-3.15L126.8-3.15ZM156.63-16.43L145.18-34.69 150.08-34.69 158.92-20.36 167.95-34.69 172.59-34.69 160.78-16.43 160.78 0 156.63 0 156.63-16.43ZM188.48-24.58L188.48-24.58Q193.49-24.58 196.72-21.39 199.96-18.19 199.96-12.55L199.96-12.55Q199.96-6.57 196.65-3.04 193.34 0.49 188.09 0.49L188.09 0.49Q183.09 0.49 179.91-2.82 176.74-6.13 176.74-11.79L176.74-11.79Q176.74-17.63 179.98-21.11 183.21-24.58 188.48-24.58ZM188.14-21.17L188.14-21.17Q185.14-21.17 182.89-18.85 180.65-16.53 180.65-12.48L180.65-12.48Q180.65-8.45 182.84-5.69 185.04-2.93 188.53-2.93L188.53-2.93Q191.75-2.93 193.9-5.37 196.05-7.81 196.05-11.74L196.05-11.74Q196.05-13.99 195.36-15.82 194.66-17.65 193.52-18.8 192.39-19.95 191-20.56 189.61-21.17 188.14-21.17ZM223.47-4.98L223.47-24.12 227.47-24.12 227.47 0 224.66 0 223.81-2.03Q219.19 0.49 215.29 0.49L215.29 0.49Q213.31 0.49 211.85-0.13 210.38-0.76 209.57-1.68 208.77-2.61 208.28-4.04 207.79-5.47 207.66-6.76 207.52-8.06 207.52-9.72L207.52-9.72 207.52-24.12 211.53-24.12 211.53-9.42Q211.53-3.1 217.02-3.1L217.02-3.1Q219.85-3.1 223.47-4.98L223.47-4.98ZM239.06-24.12L239.82-22.31Q242.87-24.58 246.56-24.58L246.56-24.58Q249.1-24.58 251.17-23.63L251.17-23.63 249.95-20.43Q248.05-21.17 246-21.17L246-21.17Q242.95-21.17 240.26-19.48L240.26-19.48 240.26 0 236.26 0 236.26-24.12 239.06-24.12ZM289.16-34.94L289.16-34.94Q293.89-34.94 298.58-33.08L298.58-33.08 297.31-29.64Q292.58-31.27 289.04-31.27L289.04-31.27Q286.11-31.27 283.6-30.11 281.1-28.96 279.45-27.01 277.8-25.07 276.88-22.57 275.95-20.07 275.95-17.33L275.95-17.33Q275.95-14.5 276.94-11.95 277.93-9.4 279.71-7.48 281.49-5.57 284.14-4.44 286.79-3.32 289.94-3.32L289.94-3.32Q293.7-3.32 297.78-4.79L297.78-4.79 299.04-1.71Q293.94 0.49 288.89 0.49L288.89 0.49Q285.76 0.49 283.03-0.42 280.29-1.32 278.26-2.94 276.22-4.57 274.75-6.79 273.29-9.01 272.54-11.68 271.8-14.36 271.8-17.31L271.8-17.31Q271.8-22.31 273.89-26.29 275.97-30.27 279.95-32.6 283.93-34.94 289.16-34.94ZM315.42-24.58L315.42-24.58Q320.43-24.58 323.66-21.39 326.9-18.19 326.9-12.55L326.9-12.55Q326.9-6.57 323.59-3.04 320.28 0.49 315.03 0.49L315.03 0.49Q310.03 0.49 306.85-2.82 303.68-6.13 303.68-11.79L303.68-11.79Q303.68-17.63 306.92-21.11 310.15-24.58 315.42-24.58ZM315.08-21.17L315.08-21.17Q312.08-21.17 309.83-18.85 307.59-16.53 307.59-12.48L307.59-12.48Q307.59-8.45 309.78-5.69 311.98-2.93 315.47-2.93L315.47-2.93Q318.7-2.93 320.84-5.37 322.99-7.81 322.99-11.74L322.99-11.74Q322.99-13.99 322.3-15.82 321.6-17.65 320.47-18.8 319.33-19.95 317.94-20.56 316.55-21.17 315.08-21.17ZM350.41-4.98L350.41-24.12 354.41-24.12 354.41 0 351.6 0 350.75-2.03Q346.13 0.49 342.23 0.49L342.23 0.49Q340.25 0.49 338.79-0.13 337.32-0.76 336.52-1.68 335.71-2.61 335.22-4.04 334.73-5.47 334.6-6.76 334.46-8.06 334.46-9.72L334.46-9.72 334.46-24.12 338.47-24.12 338.47-9.42Q338.47-3.1 343.96-3.1L343.96-3.1Q346.79-3.1 350.41-4.98L350.41-4.98ZM366.01-24.12L366.76-22.31Q369.81-24.58 373.5-24.58L373.5-24.58Q376.04-24.58 378.11-23.63L378.11-23.63 376.89-20.43Q374.99-21.17 372.94-21.17L372.94-21.17Q369.89-21.17 367.2-19.48L367.2-19.48 367.2 0 363.2 0 363.2-24.12 366.01-24.12ZM392.76-24.58L392.76-24.58Q393.27-24.58 393.72-24.57 394.18-24.56 394.6-24.51 395.03-24.46 395.34-24.44 395.64-24.41 396.04-24.34 396.45-24.27 396.63-24.23 396.81-24.19 397.24-24.08 397.67-23.97 397.77-23.95 397.86-23.93 398.34-23.78 398.82-23.63 398.89-23.61L398.89-23.61 397.86-20.56Q394.59-21.46 392.1-21.46L392.1-21.46Q390.66-21.46 389.55-21.17 388.44-20.87 387.84-20.46 387.24-20.04 386.86-19.49 386.49-18.95 386.38-18.53 386.27-18.12 386.27-17.72L386.27-17.72Q386.27-16.72 387.3-15.94 388.34-15.16 389.89-14.67 391.44-14.18 393.25-13.51 395.06-12.84 396.61-12.1 398.16-11.35 399.19-10.01 400.23-8.67 400.23-6.91L400.23-6.91Q400.23-5.91 399.97-4.97 399.72-4.03 399-3 398.28-1.98 397.14-1.23 396.01-0.49 394.1 0 392.2 0.49 389.73 0.49L389.73 0.49Q386 0.49 381.53-1.34L381.53-1.34 382.65-4.37Q385.17-3.44 386.77-3.05 388.37-2.66 389.9-2.66L389.9-2.66Q395.86-2.66 395.86-6.45L395.86-6.45Q395.86-7.28 395.28-7.91 394.69-8.54 393.71-8.95 392.74-9.35 391.5-9.78 390.27-10.21 388.99-10.57 387.71-10.94 386.47-11.54 385.24-12.13 384.26-12.85 383.29-13.57 382.7-14.72 382.12-15.87 382.12-17.31L382.12-17.31Q382.12-18.19 382.4-19.1 382.68-20.02 383.45-21.03 384.22-22.05 385.36-22.81 386.51-23.58 388.43-24.08 390.34-24.58 392.76-24.58ZM417.93-24.58L417.93-24.58Q419.69-24.58 421.09-24.16 422.49-23.73 423.42-23.07 424.35-22.41 425.02-21.35 425.69-20.29 426.05-19.3 426.4-18.31 426.6-16.92 426.79-15.53 426.84-14.5 426.89-13.48 426.89-12.08L426.89-12.08 426.89-10.18 410.31-10.18Q410.31-8.86 410.91-7.56 411.51-6.25 412.59-5.16 413.68-4.08 415.45-3.39 417.22-2.71 419.37-2.71L419.37-2.71Q421.91-2.71 424.86-3.59L424.86-3.59 425.57-0.85Q421.64 0.49 417.86 0.49L417.86 0.49Q415.19 0.49 413.13-0.22 411.07-0.93 409.81-2.06 408.55-3.2 407.75-4.79 406.94-6.37 406.64-7.95 406.33-9.52 406.33-11.28L406.33-11.28Q406.33-13.99 406.99-16.24 407.65-18.48 408.77-20.01 409.9-21.53 411.4-22.58 412.9-23.63 414.55-24.11 416.2-24.58 417.93-24.58ZM417.07-21.12L417.07-21.12Q414.93-21.12 413.38-19.93 411.83-18.75 411.12-16.99 410.41-15.23 410.41-13.21L410.41-13.21 423.01-13.21Q423.01-21.12 417.07-21.12ZM431.09 5.37L434.94-4.15 439.34-4.15 435.48 5.37 431.09 5.37ZM481.72-34.94L481.72-34.94Q486.45-34.94 491.14-33.08L491.14-33.08 489.87-29.64Q485.13-31.27 481.59-31.27L481.59-31.27Q478.66-31.27 476.16-30.11 473.66-28.96 472.01-27.01 470.36-25.07 469.43-22.57 468.51-20.07 468.51-17.33L468.51-17.33Q468.51-14.5 469.5-11.95 470.48-9.4 472.27-7.48 474.05-5.57 476.7-4.44 479.35-3.32 482.5-3.32L482.5-3.32Q486.26-3.32 490.33-4.79L490.33-4.79 491.6-1.71Q486.5 0.49 481.45 0.49L481.45 0.49Q478.32 0.49 475.59-0.42 472.85-1.32 470.81-2.94 468.78-4.57 467.31-6.79 465.85-9.01 465.1-11.68 464.36-14.36 464.36-17.31L464.36-17.31Q464.36-22.31 466.44-26.29 468.53-30.27 472.51-32.6 476.49-34.94 481.72-34.94ZM507.98-24.58L507.98-24.58Q512.99-24.58 516.22-21.39 519.46-18.19 519.46-12.55L519.46-12.55Q519.46-6.57 516.15-3.04 512.84 0.49 507.59 0.49L507.59 0.49Q502.59 0.49 499.41-2.82 496.24-6.13 496.24-11.79L496.24-11.79Q496.24-17.63 499.47-21.11 502.71-24.58 507.98-24.58ZM507.64-21.17L507.64-21.17Q504.64-21.17 502.39-18.85 500.15-16.53 500.15-12.48L500.15-12.48Q500.15-8.45 502.34-5.69 504.54-2.93 508.03-2.93L508.03-2.93Q511.25-2.93 513.4-5.37 515.55-7.81 515.55-11.74L515.55-11.74Q515.55-13.99 514.85-15.82 514.16-17.65 513.02-18.8 511.89-19.95 510.5-20.56 509.11-21.17 507.64-21.17ZM527.02 0L527.02-24.12 529.83-24.12 530.71-22.07Q535.37-24.61 539.21-24.61L539.21-24.61Q541.18-24.61 542.65-23.99 544.11-23.36 544.92-22.42 545.72-21.48 546.2-20.06 546.68-18.63 546.81-17.33 546.94-16.04 546.94-14.38L546.94-14.38 546.94 0 542.94 0 542.94-14.65Q542.94-21 537.47-21L537.47-21Q534.64-21 531.03-19.12L531.03-19.12 531.03 0 527.02 0ZM565.67-24.61L565.67-24.61Q568.55-24.61 572.33-22.68L572.33-22.68 572.85-24.12 575.65-24.12 575.65 12.96 571.65 12.96 571.65-1.2Q568.45 0.49 565.11 0.49L565.11 0.49Q563.59 0.49 562.16 0.12 560.74-0.24 559.31-1.16 557.88-2.08 556.83-3.44 555.78-4.81 555.12-6.99 554.46-9.18 554.46-11.91L554.46-11.91Q554.46-15.04 555.44-17.53 556.41-20.02 558.04-21.52 559.66-23.02 561.61-23.82 563.57-24.61 565.67-24.61ZM565.91-21.36L565.91-21.36Q562.49-21.36 560.43-18.92 558.37-16.48 558.37-12.3L558.37-12.3Q558.37-10.16 558.88-8.46 559.39-6.76 560.21-5.73 561.03-4.69 562.13-4.02 563.23-3.34 564.29-3.09 565.35-2.83 566.47-2.83L566.47-2.83Q569.13-2.83 571.65-4.17L571.65-4.17 571.65-20Q568.3-21.36 565.91-21.36ZM600.38-4.98L600.38-24.12 604.39-24.12 604.39 0 601.58 0 600.72-2.03Q596.11 0.49 592.2 0.49L592.2 0.49Q590.23 0.49 588.76-0.13 587.3-0.76 586.49-1.68 585.68-2.61 585.2-4.04 584.71-5.47 584.57-6.76 584.44-8.06 584.44-9.72L584.44-9.72 584.44-24.12 588.44-24.12 588.44-9.42Q588.44-3.1 593.94-3.1L593.94-3.1Q596.77-3.1 600.38-4.98L600.38-4.98ZM623.55-24.58L623.55-24.58Q625.31-24.58 626.71-24.16 628.11-23.73 629.04-23.07 629.97-22.41 630.64-21.35 631.31-20.29 631.67-19.3 632.02-18.31 632.22-16.92 632.41-15.53 632.46-14.5 632.51-13.48 632.51-12.08L632.51-12.08 632.51-10.18 615.93-10.18Q615.93-8.86 616.53-7.56 617.13-6.25 618.21-5.16 619.3-4.08 621.07-3.39 622.84-2.71 624.99-2.71L624.99-2.71Q627.53-2.71 630.48-3.59L630.48-3.59 631.19-0.85Q627.26 0.49 623.48 0.49L623.48 0.49Q620.81 0.49 618.75-0.22 616.69-0.93 615.43-2.06 614.17-3.2 613.37-4.79 612.56-6.37 612.26-7.95 611.95-9.52 611.95-11.28L611.95-11.28Q611.95-13.99 612.61-16.24 613.27-18.48 614.39-20.01 615.52-21.53 617.02-22.58 618.52-23.63 620.17-24.11 621.81-24.58 623.55-24.58ZM622.69-21.12L622.69-21.12Q620.55-21.12 619-19.93 617.44-18.75 616.74-16.99 616.03-15.23 616.03-13.21L616.03-13.21 628.63-13.21Q628.63-21.12 622.69-21.12ZM642.88-24.12L643.64-22.31Q646.69-24.58 650.38-24.58L650.38-24.58Q652.92-24.58 654.99-23.63L654.99-23.63 653.77-20.43Q651.87-21.17 649.82-21.17L649.82-21.17Q646.76-21.17 644.08-19.48L644.08-19.48 644.08 0 640.07 0 640.07-24.12 642.88-24.12ZM670.98-31.03L670.98-34.69 698.32-34.69 698.32-31.03 686.72-31.03 686.72 0 682.57 0 682.57-31.03 670.98-31.03ZM713.53-21L713.53-21Q710.67-21 707.08-19.12L707.08-19.12 707.08 0 703.08 0 703.08-36.89 707.08-36.89 707.08-22.29Q711.36-24.56 715.09-24.56L715.09-24.56Q716.7-24.56 717.98-24.15 719.27-23.73 720.1-23.11 720.93-22.49 721.52-21.5 722.12-20.51 722.43-19.64 722.73-18.77 722.89-17.58 723.05-16.38 723.09-15.63 723.12-14.87 723.12-13.84L723.12-13.84 723.12 0 719.02 0 719.02-14.58Q719.02-21 713.53-21ZM742.29-24.58L742.29-24.58Q744.04-24.58 745.45-24.16 746.85-23.73 747.78-23.07 748.71-22.41 749.38-21.35 750.05-20.29 750.4-19.3 750.76-18.31 750.95-16.92 751.15-15.53 751.2-14.5 751.25-13.48 751.25-12.08L751.25-12.08 751.25-10.18 734.67-10.18Q734.67-8.86 735.27-7.56 735.86-6.25 736.95-5.16 738.04-4.08 739.81-3.39 741.58-2.71 743.73-2.71L743.73-2.71Q746.27-2.71 749.22-3.59L749.22-3.59 749.93-0.85Q746 0.49 742.21 0.49L742.21 0.49Q739.55 0.49 737.49-0.22 735.43-0.93 734.17-2.06 732.91-3.2 732.11-4.79 731.3-6.37 730.99-7.95 730.69-9.52 730.69-11.28L730.69-11.28Q730.69-13.99 731.35-16.24 732.01-18.48 733.13-20.01 734.25-21.53 735.76-22.58 737.26-23.63 738.9-24.11 740.55-24.58 742.29-24.58ZM741.43-21.12L741.43-21.12Q739.28-21.12 737.73-19.93 736.18-18.75 735.47-16.99 734.77-15.23 734.77-13.21L734.77-13.21 747.36-13.21Q747.36-21.12 741.43-21.12ZM775.17 0L775.17-34.69 786.62-34.69Q787.42-34.69 787.95-34.68 788.47-34.67 789.47-34.58 790.47-34.5 791.18-34.34 791.89-34.18 792.85-33.85 793.82-33.52 794.5-33.08 795.19-32.64 795.93-31.92 796.68-31.2 797.13-30.32 797.58-29.44 797.87-28.2 798.16-26.95 798.16-25.46L798.16-25.46Q798.16-23.32 797.68-21.61 797.19-19.9 796.42-18.75 795.65-17.6 794.43-16.77 793.21-15.94 792.01-15.49 790.82-15.04 789.19-14.78 787.57-14.53 786.29-14.45 785.01-14.38 783.32-14.38L783.32-14.38Q781.66-14.38 779.32-14.55L779.32-14.55 779.32 0 775.17 0ZM779.32-31.03L779.32-18.21Q781.66-18.02 783.76-18.02L783.76-18.02Q784.96-18.02 785.76-18.04 786.57-18.07 787.74-18.21 788.91-18.36 789.69-18.62 790.47-18.87 791.35-19.38 792.23-19.9 792.76-20.59 793.28-21.29 793.62-22.35 793.97-23.41 793.97-24.78L793.97-24.78Q793.97-26.2 793.6-27.28 793.23-28.37 792.54-29.03 791.84-29.69 791.07-30.11 790.3-30.54 789.22-30.73 788.13-30.91 787.31-30.97 786.49-31.03 785.37-31.03L785.37-31.03 779.32-31.03ZM815.54-24.58L815.54-24.58Q817.3-24.58 818.71-24.16 820.11-23.73 821.04-23.07 821.97-22.41 822.64-21.35 823.31-20.29 823.66-19.3 824.02-18.31 824.21-16.92 824.41-15.53 824.46-14.5 824.5-13.48 824.5-12.08L824.5-12.08 824.5-10.18 807.93-10.18Q807.93-8.86 808.53-7.56 809.12-6.25 810.21-5.16 811.3-4.08 813.07-3.39 814.84-2.71 816.99-2.71L816.99-2.71Q819.52-2.71 822.48-3.59L822.48-3.59 823.19-0.85Q819.26 0.49 815.47 0.49L815.47 0.49Q812.81 0.49 810.75-0.22 808.68-0.93 807.43-2.06 806.17-3.2 805.36-4.79 804.56-6.37 804.25-7.95 803.95-9.52 803.95-11.28L803.95-11.28Q803.95-13.99 804.61-16.24 805.27-18.48 806.39-20.01 807.51-21.53 809.01-22.58 810.52-23.63 812.16-24.11 813.81-24.58 815.54-24.58ZM814.69-21.12L814.69-21.12Q812.54-21.12 810.99-19.93 809.44-18.75 808.73-16.99 808.03-15.23 808.03-13.21L808.03-13.21 820.62-13.21Q820.62-21.12 814.69-21.12ZM840.05-24.58L840.05-24.58Q842.74-24.58 844.61-23.96 846.48-23.34 847.49-22.14 848.5-20.95 848.94-19.48 849.38-18.02 849.38-16.11L849.38-16.11 849.38 0 846.55 0 845.62-2.2Q842.67 0.49 838.83 0.49L838.83 0.49Q835.42 0.49 833.05-1.57 830.68-3.64 830.68-6.4L830.68-6.4Q830.68-7.86 831.22-9.03 831.75-10.21 832.77-10.99 833.78-11.77 835.07-12.32 836.37-12.87 838.09-13.16 839.81-13.45 841.54-13.57 843.28-13.7 845.35-13.7L845.35-13.7 845.35-15.6Q845.35-16.43 845.29-17.04 845.23-17.65 844.89-18.51 844.55-19.36 843.96-19.91 843.37-20.46 842.2-20.86 841.03-21.26 839.42-21.26L839.42-21.26Q836.93-21.26 832.97-20.17L832.97-20.17 832.22-23.1Q836.22-24.58 840.05-24.58ZM845.35-5.13L845.35-10.67 843.86-10.67Q842.47-10.67 841.45-10.62 840.42-10.57 839.04-10.34 837.66-10.11 836.78-9.69 835.9-9.28 835.28-8.48 834.66-7.69 834.66-6.59L834.66-6.59Q834.66-5.05 836.21-3.86 837.76-2.66 839.91-2.66L839.91-2.66Q843.06-2.66 845.35-5.13L845.35-5.13ZM858.17 0L858.17-36.89 862.17-36.89 862.17 0 858.17 0ZM862.56-13.33L873.21-24.61 877.62-24.61 867.13-13.75 878.26 0 873.45 0 862.56-13.33ZM894.37-24.58L894.37-24.58Q894.88-24.58 895.33-24.57 895.79-24.56 896.21-24.51 896.64-24.46 896.95-24.44 897.25-24.41 897.65-24.34 898.06-24.27 898.24-24.23 898.42-24.19 898.85-24.08 899.28-23.97 899.38-23.95 899.47-23.93 899.95-23.78 900.43-23.63 900.5-23.61L900.5-23.61 899.47-20.56Q896.2-21.46 893.71-21.46L893.71-21.46Q892.27-21.46 891.16-21.17 890.05-20.87 889.45-20.46 888.85-20.04 888.47-19.49 888.1-18.95 887.99-18.53 887.88-18.12 887.88-17.72L887.88-17.72Q887.88-16.72 888.91-15.94 889.95-15.16 891.5-14.67 893.05-14.18 894.86-13.51 896.67-12.84 898.22-12.1 899.77-11.35 900.8-10.01 901.84-8.67 901.84-6.91L901.84-6.91Q901.84-5.91 901.58-4.97 901.33-4.03 900.61-3 899.89-1.98 898.75-1.23 897.62-0.49 895.71 0 893.81 0.49 891.34 0.49L891.34 0.49Q887.61 0.49 883.14-1.34L883.14-1.34 884.26-4.37Q886.78-3.44 888.38-3.05 889.98-2.66 891.51-2.66L891.51-2.66Q897.47-2.66 897.47-6.45L897.47-6.45Q897.47-7.28 896.89-7.91 896.3-8.54 895.32-8.95 894.35-9.35 893.11-9.78 891.88-10.21 890.6-10.57 889.32-10.94 888.08-11.54 886.85-12.13 885.87-12.85 884.9-13.57 884.31-14.72 883.73-15.87 883.73-17.31L883.73-17.31Q883.73-18.19 884.01-19.1 884.29-20.02 885.06-21.03 885.83-22.05 886.97-22.81 888.12-23.58 890.04-24.08 891.95-24.58 894.37-24.58Z" opacity="1" transform="matrix(1,0,0,1,0,0)" fill="#000000" class="slogan-text-1" data-fill-palette-color="secondary" id="text-1"></path></svg></g></svg></g></svg></g></svg></g><g></g></svg></g><defs></defs></svg><rect width="395.52" height="78.71975829037073" fill="none" stroke="none" visibility="hidden"></rect></g></svg></g></svg>